<svg width="79" height="79" viewBox="0 0 79 79" fill="none" xmlns="http://www.w3.org/2000/svg">
<g clip-path="url(#clip0_4_26)">
<path d="M39.5 74.0625C30.3335 74.0625 21.5423 70.4211 15.0606 63.9394C8.5789 57.4576 4.9375 48.6665 4.9375 39.5C4.9375 30.3335 8.5789 21.5423 15.0606 15.0606C21.5423 8.5789 30.3335 4.9375 39.5 4.9375C48.6665 4.9375 57.4576 8.5789 63.9394 15.0606C70.4211 21.5423 74.0625 30.3335 74.0625 39.5C74.0625 48.6665 70.4211 57.4576 63.9394 63.9394C57.4576 70.4211 48.6665 74.0625 39.5 74.0625ZM39.5 79C49.9761 79 60.023 74.8384 67.4307 67.4307C74.8384 60.023 79 49.9761 79 39.5C79 29.0239 74.8384 18.977 67.4307 11.5693C60.023 4.1616 49.9761 0 39.5 0C29.0239 0 18.977 4.1616 11.5693 11.5693C4.1616 18.977 0 29.0239 0 39.5C0 49.9761 4.1616 60.023 11.5693 67.4307C18.977 74.8384 29.0239 79 39.5 79Z" fill="url(#paint0_linear_4_26)"/>
<path d="M30.9631 24.9591C31.3669 24.7511 31.8202 24.6586 32.2732 24.6917C32.7262 24.7249 33.1613 24.8823 33.5306 25.1467L50.8118 37.4905C51.1318 37.7188 51.3927 38.0203 51.5727 38.3699C51.7527 38.7194 51.8466 39.1069 51.8466 39.5C51.8466 39.8932 51.7527 40.2806 51.5727 40.6302C51.3927 40.9797 51.1318 41.2812 50.8118 41.5096L33.5306 53.8533C33.1614 54.1175 32.7265 54.2748 32.2738 54.308C31.821 54.3411 31.3679 54.2487 30.9642 54.041C30.5606 53.8333 30.222 53.5183 29.9857 53.1307C29.7494 52.743 29.6246 52.2977 29.625 51.8438V27.1563C29.6245 26.7024 29.7492 26.2572 29.9852 25.8696C30.2213 25.482 30.5596 25.1669 30.9631 24.9591Z" fill="url(#paint1_linear_4_26)"/>
</g>
<defs>
<linearGradient id="paint0_linear_4_26" x1="39.5" y1="0" x2="39.5" y2="79" gradientUnits="userSpaceOnUse">
<stop stop-color="#00B5FC"/>
<stop offset="1" stop-color="#9762FD"/>
</linearGradient>
<linearGradient id="paint1_linear_4_26" x1="40.7358" y1="24.6852" x2="40.7358" y2="54.3145" gradientUnits="userSpaceOnUse">
<stop stop-color="#00B5FC"/>
<stop offset="1" stop-color="#9762FD"/>
</linearGradient>
<clipPath id="clip0_4_26">
<rect width="79" height="79" fill="white"/>
</clipPath>
</defs>
</svg>
